# xmcd
#
# Track frame offsets:
#	150
#	17095
#	29327
#	39460
#	53435
#	63212
#	74355
#	86510
#	99227
#	113752
#	124457
#	137940
#	154020
#	164880
#	179492
#	195705
#	207493
#	220303
#	237978
#	253538
#
# Disc length: 3638 seconds
#
# Revision: 3
# Processed by: cddbd v1.5.1PL0 Copyright (c) Steve Scherf et al.
# Submitted via: EasyCDDAExtractor 8.1.4.1
#
DISCID=230e3414
DTITLE=Various Artist - Meio Século de Música Sertaneja Vol.6
DYEAR=1900
DGENRE=Sertanejo
TTITLE0=Zé do Rancho and Zé do Pinho - Poeira
TTITLE1=Silveira and Barrinha - Mineiro de Uberaba
TTITLE2=Tibagi and Miltinho - Lembranças de Amor
TTITLE3=Palmeira e Bia - Baião da Serra Grande
TTITLE4=Tonico and Tinoco - Laço da Amizade
TTITLE5=Zé do Rancho and Mariazinha - Colibri
TTITLE6=Carmen Silva - Manhã sem Aurora
TTITLE7=Raul Torres and Florêncio - Gostei da Morena
TTITLE8=Luizinho, Limeira and Zezinha  - Sonho de Caboclo
TTITLE9=Mario Zan - Limpa Banco
TTITLE10=Irmãs Galvão - Coraçao Sabe o que Faz
TTITLE11=Renato Teixeira - Sina de Violeiro
TTITLE12=Inezita Barroso - Marvada Pinga
TTITLE13=Sérgio Reis - Panela Velha
TTITLE14=Gian and Giovani - 1,2,3
TTITLE15=Léo Canhoto and Robertinho - Caixa Postal 95
TTITLE16=Bob Nelson - Eu Tiro o Leite
TTITLE17=Leandro and Leonardo  - Dia de Rodeio
TTITLE18=Cesar and Paulinho - Cerveja
TTITLE19=Luiz Gonzaga - Luar do Sertão
EXTD=
EXTT0=
EXTT1=
EXTT2=
EXTT3=
EXTT4=
EXTT5=
EXTT6=
EXTT7=
EXTT8=
EXTT9=
EXTT10=
EXTT11=
EXTT12=
EXTT13=
EXTT14=
EXTT15=
EXTT16=
EXTT17=
EXTT18=
EXTT19=
PLAYORDER=
